<svg width="96" height="24" viewBox="0 0 96 24" fill="none" xmlns="http://www.w3.org/2000/svg">
<g clip-path="url(#clip0_143_323)">
<path d="M15.2245 15.508L13.0115 20.158C12.9696 20.2459 12.907 20.3223 12.829 20.3806C12.751 20.4389 12.6599 20.4774 12.5638 20.4926C12.4676 20.5079 12.3691 20.4995 12.2769 20.4682C12.1847 20.4369 12.1015 20.3836 12.0345 20.313L8.49246 16.574C8.39784 16.4742 8.2718 16.41 8.13546 16.392L3.02846 15.724C2.93197 15.7113 2.84003 15.6753 2.76055 15.6191C2.68107 15.563 2.61645 15.4883 2.57226 15.4016C2.52807 15.3149 2.50563 15.2187 2.50689 15.1214C2.50814 15.0241 2.53305 14.9285 2.57946 14.843L5.04146 10.319C5.10691 10.198 5.1288 10.0582 5.10346 9.923L4.16046 4.86C4.14255 4.76417 4.14827 4.66541 4.17711 4.57229C4.20595 4.47916 4.25705 4.39446 4.32599 4.32553C4.39493 4.25659 4.47962 4.20549 4.57275 4.17665C4.66588 4.14781 4.76463 4.14209 4.86046 4.16L9.92346 5.103C10.0587 5.12834 10.1985 5.10645 10.3195 5.041L14.8435 2.579C14.9291 2.53257 15.0247 2.50769 15.1221 2.50648C15.2195 2.50528 15.3157 2.52781 15.4024 2.57211C15.4891 2.61641 15.5638 2.68116 15.6199 2.76076C15.676 2.84036 15.7119 2.93242 15.7245 3.029L16.3925 8.135C16.4104 8.27134 16.4747 8.39737 16.5745 8.492L20.3135 12.034C20.3841 12.101 20.4374 12.1842 20.4687 12.2765C20.5 12.3687 20.5084 12.4671 20.4931 12.5633C20.4778 12.6595 20.4394 12.7505 20.3811 12.8285C20.3228 12.9065 20.2464 12.9691 20.1585 13.011L15.5085 15.224C15.384 15.2832 15.2837 15.3835 15.2245 15.508ZM16.0215 17.435L17.4355 16.021L21.6785 20.263L20.2635 21.678L16.0215 17.435Z" fill="#3B82F6"/>
</g>
<path d="M33.168 18V6.8H37.616C38.2987 6.8 38.9067 6.93867 39.44 7.216C39.984 7.48267 40.4053 7.86667 40.704 8.368C41.0133 8.85867 41.168 9.45067 41.168 10.144V10.352C41.168 11.0453 41.008 11.6427 40.688 12.144C40.3787 12.6453 39.9573 13.0293 39.424 13.296C38.8907 13.5627 38.288 13.696 37.616 13.696H34.896V18H33.168ZM34.896 12.128H37.44C38.048 12.128 38.5333 11.968 38.896 11.648C39.2587 11.328 39.44 10.8907 39.44 10.336V10.176C39.44 9.61067 39.2587 9.168 38.896 8.848C38.5333 8.528 38.048 8.368 37.44 8.368H34.896V12.128ZM42.8566 18V10.112H44.4726V11.04H44.7286C44.8566 10.7093 45.0593 10.4693 45.3366 10.32C45.6246 10.16 45.9766 10.08 46.3926 10.08H47.3366V11.568H46.3286C45.7953 11.568 45.358 11.7173 45.0166 12.016C44.6753 12.304 44.5046 12.752 44.5046 13.36V18H42.8566ZM52.4589 18.224C51.6695 18.224 50.9655 18.064 50.3469 17.744C49.7389 17.4133 49.2589 16.944 48.9069 16.336C48.5549 15.728 48.3789 15.008 48.3789 14.176V13.936C48.3789 13.104 48.5549 12.3893 48.9069 11.792C49.2589 11.184 49.7389 10.7147 50.3469 10.384C50.9655 10.0533 51.6695 9.888 52.4589 9.888C53.2482 9.888 53.9522 10.0533 54.5709 10.384C55.1895 10.7147 55.6749 11.184 56.0269 11.792C56.3789 12.3893 56.5549 13.104 56.5549 13.936V14.176C56.5549 15.008 56.3789 15.728 56.0269 16.336C55.6749 16.944 55.1895 17.4133 54.5709 17.744C53.9522 18.064 53.2482 18.224 52.4589 18.224ZM52.4589 16.752C53.1842 16.752 53.7709 16.5227 54.2189 16.064C54.6775 15.5947 54.9069 14.9493 54.9069 14.128V13.984C54.9069 13.1627 54.6829 12.5227 54.2349 12.064C53.7869 11.5947 53.1949 11.36 52.4589 11.36C51.7442 11.36 51.1575 11.5947 50.6989 12.064C50.2509 12.5227 50.0269 13.1627 50.0269 13.984V14.128C50.0269 14.9493 50.2509 15.5947 50.6989 16.064C51.1575 16.5227 51.7442 16.752 52.4589 16.752ZM57.1026 21.2V19.776H58.1746C58.484 19.776 58.6386 19.616 58.6386 19.296V10.112H60.2866V19.616C60.2866 20.096 60.148 20.48 59.8706 20.768C59.5933 21.056 59.204 21.2 58.7026 21.2H57.1026ZM59.4706 9.04C59.1506 9.04 58.8786 8.93867 58.6546 8.736C58.4413 8.52267 58.3346 8.25067 58.3346 7.92C58.3346 7.58933 58.4413 7.32267 58.6546 7.12C58.8786 6.90667 59.1506 6.8 59.4706 6.8C59.8013 6.8 60.0733 6.90667 60.2866 7.12C60.5 7.32267 60.6066 7.58933 60.6066 7.92C60.6066 8.25067 60.5 8.52267 60.2866 8.736C60.0733 8.93867 59.8013 9.04 59.4706 9.04ZM66.3476 18.224C65.5476 18.224 64.849 18.0587 64.2516 17.728C63.6543 17.3867 63.185 16.912 62.8436 16.304C62.513 15.6853 62.3476 14.9707 62.3476 14.16V13.968C62.3476 13.1467 62.513 12.432 62.8436 11.824C63.1743 11.2053 63.633 10.7307 64.2196 10.4C64.817 10.0587 65.505 9.888 66.2836 9.888C67.041 9.888 67.7023 10.0587 68.2676 10.4C68.8436 10.7307 69.2916 11.1947 69.6116 11.792C69.9316 12.3893 70.0916 13.088 70.0916 13.888V14.512H64.0276C64.049 15.2053 64.2783 15.76 64.7156 16.176C65.1636 16.5813 65.7183 16.784 66.3796 16.784C66.9983 16.784 67.4623 16.6453 67.7716 16.368C68.0916 16.0907 68.337 15.7707 68.5076 15.408L69.8676 16.112C69.7183 16.4107 69.4996 16.7253 69.2116 17.056C68.9343 17.3867 68.5663 17.664 68.1076 17.888C67.649 18.112 67.0623 18.224 66.3476 18.224ZM64.0436 13.248H68.4116C68.369 12.6507 68.1556 12.1867 67.7716 11.856C67.3876 11.5147 66.8863 11.344 66.2676 11.344C65.649 11.344 65.1423 11.5147 64.7476 11.856C64.3636 12.1867 64.129 12.6507 64.0436 13.248ZM75.7394 18.224C74.982 18.224 74.294 18.064 73.6754 17.744C73.0674 17.424 72.582 16.96 72.2194 16.352C71.8674 15.744 71.6914 15.0133 71.6914 14.16V13.952C71.6914 13.0987 71.8674 12.3733 72.2194 11.776C72.582 11.168 73.0674 10.704 73.6754 10.384C74.294 10.0533 74.982 9.888 75.7394 9.888C76.4967 9.888 77.142 10.0267 77.6754 10.304C78.2087 10.5813 78.6354 10.9493 78.9554 11.408C79.286 11.8667 79.4994 12.3733 79.5954 12.928L77.9954 13.264C77.942 12.912 77.83 12.592 77.6594 12.304C77.4887 12.016 77.2487 11.7867 76.9394 11.616C76.63 11.4453 76.2407 11.36 75.7714 11.36C75.3127 11.36 74.8967 11.4667 74.5234 11.68C74.1607 11.8827 73.8727 12.1813 73.6594 12.576C73.446 12.96 73.3394 13.4293 73.3394 13.984V14.128C73.3394 14.6827 73.446 15.1573 73.6594 15.552C73.8727 15.9467 74.1607 16.2453 74.5234 16.448C74.8967 16.6507 75.3127 16.752 75.7714 16.752C76.4647 16.752 76.9927 16.576 77.3554 16.224C77.718 15.8613 77.9474 15.4027 78.0434 14.848L79.6434 15.216C79.5154 15.76 79.286 16.2613 78.9554 16.72C78.6354 17.1787 78.2087 17.5467 77.6754 17.824C77.142 18.0907 76.4967 18.224 75.7394 18.224ZM84.2073 18C83.7273 18 83.3433 17.856 83.0553 17.568C82.7779 17.28 82.6393 16.896 82.6393 16.416V11.504H80.4633V10.112H82.6393V7.504H84.2873V10.112H86.6393V11.504H84.2873V16.128C84.2873 16.448 84.4366 16.608 84.7352 16.608H86.3833V18H84.2073ZM91.8074 18.224C90.8047 18.224 89.9727 18 89.3114 17.552C88.65 17.104 88.2447 16.4267 88.0954 15.52L89.6314 15.152C89.7167 15.5893 89.8607 15.936 90.0634 16.192C90.266 16.448 90.5167 16.6293 90.8154 16.736C91.1247 16.8427 91.4554 16.896 91.8074 16.896C92.33 16.896 92.73 16.7947 93.0074 16.592C93.2954 16.3893 93.4394 16.128 93.4394 15.808C93.4394 15.488 93.306 15.2533 93.0394 15.104C92.7727 14.9547 92.378 14.832 91.8554 14.736L91.3114 14.64C90.778 14.544 90.2927 14.4053 89.8554 14.224C89.418 14.0427 89.0714 13.792 88.8154 13.472C88.5594 13.152 88.4314 12.7413 88.4314 12.24C88.4314 11.4933 88.7087 10.9173 89.2634 10.512C89.818 10.096 90.554 9.888 91.4714 9.888C92.3567 9.888 93.082 10.0907 93.6474 10.496C94.2234 10.8907 94.5967 11.4293 94.7674 12.112L93.2314 12.544C93.1354 12.064 92.9327 11.728 92.6234 11.536C92.314 11.3333 91.93 11.232 91.4714 11.232C91.0234 11.232 90.6714 11.3173 90.4154 11.488C90.1594 11.648 90.0314 11.8773 90.0314 12.176C90.0314 12.496 90.154 12.7307 90.3994 12.88C90.6554 13.0293 90.9967 13.1413 91.4234 13.216L91.9834 13.312C92.5487 13.408 93.066 13.5413 93.5354 13.712C94.0047 13.8827 94.3727 14.128 94.6394 14.448C94.9167 14.768 95.0554 15.1947 95.0554 15.728C95.0554 16.5173 94.762 17.1307 94.1754 17.568C93.5887 18.0053 92.7994 18.224 91.8074 18.224Z" fill="#D1D5DB"/>
<defs>
<clipPath id="clip0_143_323">
<rect width="24" height="24" fill="white"/>
</clipPath>
</defs>
</svg>
